<?xml version="1.0" encoding="UTF-8" standalone="no"?><svg xmlns="http://www.w3.org/2000/svg" xmlns:xlink="http://www.w3.org/1999/xlink" fill="#ffffff" height="400" preserveAspectRatio="xMidYMid meet" version="1" viewBox="0.0 0.0 400.0 400.0" width="400" zoomAndPan="magnify"><g id="change1_1"><path d="M341.42,58.58C305.24,22.4,255.25,0.01,200.04,0c-0.01,0-0.03,0-0.04,0s-0.03,0-0.04,0C144.75,0.01,94.76,22.4,58.58,58.58 c-11.05,11.05-20.8,23.39-29.03,36.77c-0.16,0.22-0.3,0.44-0.42,0.68C10.65,126.33,0,161.92,0,200c0,38.08,10.65,73.67,29.12,103.97 c0.13,0.24,0.27,0.46,0.42,0.68c8.23,13.38,17.99,25.72,29.04,36.77C94.77,377.61,144.78,400,200,400s105.23-22.39,141.42-58.58 C377.61,305.23,400,255.22,400,200S377.61,94.77,341.42,58.58z M363.84,290.4l-40.98,0.51c9.01-25.65,14.34-54.52,14.94-85.08 l49.18,0.53C385.97,236.77,377.7,265.34,363.84,290.4z M12.93,202.35l49.23,0.53c0.32,32.88,6.1,63.86,16.07,91.08l-39.76,0.5 C22.59,267.36,13.34,235.92,12.93,202.35z M38.47,105.55l39.76,0.5c-9.25,25.25-14.9,53.74-15.93,83.98L13.2,189.5 C14.89,158.99,23.88,130.44,38.47,105.55z M256.26,192.11c-0.31-30.2-2.4-58.68-5.87-83.92l58.74,0.73 c9.36,25,14.97,53.52,15.74,83.92L256.26,192.11z M200,387.1C200,387.1,200,387.1,200,387.1C200,387.1,200,387.1,200,387.1 c-10.46-0.01-20.79-19.81-29.04-51.83c-2.32-8.99-4.4-18.89-6.21-29.55l70.65-0.88c-1.85,10.99-3.99,21.19-6.36,30.43 C220.79,367.29,210.46,387.1,200,387.1z M162.75,292.9c-3.77-26.4-5.98-56.7-6.14-89.02l86.79,0.93 c-0.2,31.59-2.35,61.23-6.01,87.16L162.75,292.9z M156.65,191.04c0.36-30.41,2.53-58.92,6.1-83.94l74.64,0.93 c3.53,25.05,5.66,53.56,5.98,83.94L156.65,191.04z M164.75,94.27c1.82-10.66,3.9-20.56,6.21-29.55 C179.21,32.71,189.55,12.9,200,12.9c10.46,0,20.79,19.81,29.03,51.83c2.38,9.23,4.51,19.43,6.36,30.43L164.75,94.27z M248.45,95.32 c-2-12.22-4.34-23.55-6.98-33.76c-4.95-19.23-11.14-34.74-18.25-45.39c24.79,7.03,47.06,25.06,64.38,50.58 c6.04,8.9,11.48,18.71,16.21,29.26L248.45,95.32z M158.52,61.55c-2.54,9.88-4.82,20.79-6.78,32.56l-54.4-0.68 c4.46-9.58,9.49-18.52,15.04-26.69c17.32-25.51,39.59-43.55,64.38-50.58C169.66,26.81,163.48,42.33,158.52,61.55z M149.78,106.94 c-3.53,25.21-5.67,53.72-6.03,83.96l-68.54-0.73c1.06-30.49,7-59.03,16.69-83.95L149.78,106.94z M75.06,203.01l68.65,0.74 c0.16,32.24,2.34,62.62,6.08,89.32l-57.89,0.72C81.48,267.02,75.41,236.07,75.06,203.01z M151.74,305.89 c1.96,11.76,4.23,22.68,6.78,32.56c4.95,19.23,11.14,34.74,18.25,45.39c-24.79-7.03-47.06-25.06-64.38-50.58 c-5.55-8.17-10.58-17.11-15.04-26.69L151.74,305.89z M241.48,338.45c2.63-10.21,4.97-21.54,6.98-33.76l55.37-0.69 c-4.74,10.56-10.17,20.36-16.21,29.26c-17.32,25.51-39.59,43.55-64.38,50.58C230.34,373.19,236.52,357.68,241.48,338.45z M250.39,291.81c3.59-26.06,5.7-55.57,5.9-86.86l68.61,0.73c-0.62,30.95-6.27,59.98-15.77,85.39L250.39,291.81z M337.77,192.98 c-0.72-30.12-6.01-58.57-14.91-83.89l40.98,0.51c13.83,25.02,22.1,53.54,23.13,83.9L337.77,192.98z M332.3,67.7 c8.82,8.82,16.75,18.53,23.68,28.96l-38.08-0.47c-5.57-13.32-12.18-25.62-19.66-36.64c-9.07-13.36-19.44-24.86-30.8-34.1 C291.98,34.92,314.03,49.42,332.3,67.7z M67.7,67.7c18.28-18.27,40.32-32.78,64.86-42.26c-11.36,9.24-21.73,20.74-30.8,34.1 c-6.93,10.21-13.12,21.52-18.42,33.72L46.64,92.8C52.93,83.83,59.97,75.42,67.7,67.7z M46.64,307.2l36.69-0.46 c5.3,12.2,11.49,23.51,18.42,33.72c9.07,13.36,19.44,24.86,30.8,34.11c-24.54-9.49-46.59-23.99-64.86-42.26 C59.97,324.58,52.93,316.17,46.64,307.2z M332.3,332.3c-18.28,18.27-40.32,32.78-64.86,42.26c11.36-9.24,21.73-20.74,30.8-34.11 c7.48-11.02,14.09-23.32,19.66-36.64l38.08-0.47C349.06,313.78,341.12,323.48,332.3,332.3z"/></g></svg>