<?xml version="1.0" encoding="UTF-8" standalone="no"?><svg xmlns="http://www.w3.org/2000/svg" xmlns:xlink="http://www.w3.org/1999/xlink" clip-rule="evenodd" fill="#ffffff" fill-rule="evenodd" height="28" preserveAspectRatio="xMidYMid meet" stroke-linejoin="round" stroke-miterlimit="2" version="1" viewBox="3.0 2.0 26.0 28.0" width="26" zoomAndPan="magnify"><g id="change1_1"><path d="M17,29l0,-26c-0,-0.552 -0.448,-1 -1,-1c-0.552,0 -1,0.448 -1,1l0,26c-0,0.552 0.448,1 1,1c0.552,0 1,-0.448 1,-1Zm4,-5l0,-16c-0,-0.552 -0.448,-1 -1,-1c-0.552,0 -1,0.448 -1,1l0,16c-0,0.552 0.448,1 1,1c0.552,0 1,-0.448 1,-1Zm-8,-0l0,-16c0,-0.552 -0.448,-1 -1,-1c-0.552,-0 -1,0.448 -1,1l0,16c0,0.552 0.448,1 1,1c0.552,-0 1,-0.448 1,-1Zm12,-3l0,-10c-0,-0.552 -0.448,-1 -1,-1c-0.552,0 -1,0.448 -1,1l0,10c-0,0.552 0.448,1 1,1c0.552,0 1,-0.448 1,-1Zm-16,-0l-0,-10c0,-0.552 -0.448,-1 -1,-1c-0.552,-0 -1,0.448 -1,1l-0,10c0,0.552 0.448,1 1,1c0.552,-0 1,-0.448 1,-1Zm-4,-2l0,-6c-0,-0.552 -0.448,-1 -1,-1c-0.552,0 -1,0.448 -1,1l0,6c-0,0.552 0.448,1 1,1c0.552,0 1,-0.448 1,-1Zm24,-0l0,-6c0,-0.552 -0.448,-1 -1,-1c-0.552,-0 -1,0.448 -1,1l0,6c0,0.552 0.448,1 1,1c0.552,-0 1,-0.448 1,-1Z"/></g></svg>