<?xml version="1.0" encoding="UTF-8"?><svg xmlns="http://www.w3.org/2000/svg" xmlns:xlink="http://www.w3.org/1999/xlink" height="56.7" preserveAspectRatio="xMidYMid meet" version="1.0" viewBox="0.4 0.3 77.9 56.7" width="77.9" zoomAndPan="magnify"><g fill="#fff" id="change1_1"><path d="M 11.550781 23.605469 C 11.527344 24.148438 11.511719 24.695312 11.519531 25.242188 C 11.402344 25.464844 11.292969 25.691406 11.195312 25.917969 C 11.28125 25.136719 11.402344 24.363281 11.550781 23.605469 Z M 22.710938 6.480469 C 22.214844 7.035156 21.765625 7.652344 21.355469 8.324219 C 20.421875 8.792969 19.5625 9.300781 18.78125 9.847656 C 19.980469 8.609375 21.296875 7.476562 22.710938 6.480469 Z M 58.425781 9.84375 C 57.644531 9.296875 56.78125 8.785156 55.847656 8.320312 C 55.4375 7.640625 54.980469 7.019531 54.480469 6.460938 C 55.761719 7.363281 56.976562 8.378906 58.105469 9.507812 C 58.214844 9.613281 58.320312 9.730469 58.425781 9.84375 Z M 65.6875 25.238281 C 65.699219 24.683594 65.683594 24.136719 65.65625 23.589844 C 65.804688 24.347656 65.917969 25.109375 66.003906 25.882812 C 65.910156 25.667969 65.804688 25.449219 65.6875 25.238281 Z M 65.578125 34.777344 C 65.519531 33.734375 65.226562 32.71875 64.710938 31.730469 C 65.226562 29.914062 65.542969 28.066406 65.648438 26.21875 C 65.925781 26.882812 66.09375 27.558594 66.167969 28.242188 C 66.171875 28.496094 66.183594 28.753906 66.183594 29.011719 C 66.183594 30.972656 65.976562 32.902344 65.578125 34.777344 Z M 57.484375 49.105469 C 57.550781 49.007812 57.609375 48.90625 57.667969 48.804688 C 57.886719 48.640625 58.097656 48.46875 58.3125 48.296875 C 58.242188 48.367188 58.175781 48.445312 58.105469 48.515625 C 57.902344 48.71875 57.691406 48.910156 57.484375 49.105469 Z M 18.878906 48.28125 C 19.09375 48.457031 19.308594 48.632812 19.527344 48.796875 C 19.585938 48.898438 19.648438 49 19.714844 49.101562 C 19.507812 48.90625 19.300781 48.714844 19.097656 48.515625 C 19.023438 48.4375 18.953125 48.359375 18.878906 48.28125 Z M 14.289062 22.511719 C 14.3125 24.308594 14.539062 26.152344 14.984375 28.035156 C 15.019531 28.175781 15.054688 28.316406 15.089844 28.457031 C 14.839844 28.675781 14.601562 28.898438 14.375 29.125 C 13.6875 29.8125 13.121094 30.523438 12.683594 31.246094 C 12.1875 29.390625 11.90625 27.507812 11.84375 25.621094 C 12.402344 24.527344 13.226562 23.484375 14.289062 22.511719 Z M 12.765625 19.355469 C 13.300781 18.324219 14.078125 17.347656 15.066406 16.441406 C 14.570312 18.191406 14.308594 20.023438 14.285156 21.910156 C 14.015625 22.144531 13.757812 22.382812 13.515625 22.621094 C 12.835938 23.304688 12.277344 24 11.828125 24.714844 C 11.832031 23.636719 11.910156 22.5625 12.058594 21.496094 C 12.265625 20.769531 12.503906 20.054688 12.765625 19.355469 Z M 16.972656 11.917969 C 16.785156 12.242188 16.605469 12.574219 16.4375 12.910156 C 16.226562 13.09375 16.023438 13.273438 15.832031 13.464844 C 16.195312 12.933594 16.574219 12.414062 16.972656 11.917969 Z M 20.324219 10.367188 C 19.085938 10.996094 17.984375 11.683594 17.035156 12.421875 C 17.335938 11.871094 17.667969 11.332031 18.023438 10.804688 C 18.90625 10.082031 19.929688 9.414062 21.066406 8.816406 C 20.796875 9.308594 20.546875 9.824219 20.324219 10.367188 Z M 26.234375 6.753906 C 26 7.242188 25.789062 7.765625 25.601562 8.316406 C 24.8125 8.546875 24.046875 8.800781 23.304688 9.074219 C 22.398438 9.414062 21.550781 9.773438 20.753906 10.160156 C 21 9.59375 21.273438 9.058594 21.574219 8.554688 C 22.976562 7.859375 24.542969 7.253906 26.234375 6.753906 Z M 24.089844 5.5625 C 24.492188 5.3125 24.898438 5.074219 25.3125 4.847656 C 26.238281 4.421875 27.242188 4.042969 28.304688 3.71875 C 27.570312 4.46875 26.941406 5.355469 26.414062 6.382812 C 24.78125 6.855469 23.253906 7.421875 21.875 8.070312 C 22.511719 7.101562 23.253906 6.261719 24.089844 5.5625 Z M 28.785156 3.257812 C 28.714844 3.273438 28.644531 3.292969 28.574219 3.316406 C 28.660156 3.28125 28.746094 3.25 28.832031 3.21875 C 28.816406 3.230469 28.800781 3.242188 28.785156 3.257812 Z M 33.507812 2.289062 C 32.09375 2.472656 30.730469 2.738281 29.4375 3.078125 C 29.445312 3.050781 29.449219 3.019531 29.445312 2.992188 C 30.875 2.488281 32.355469 2.097656 33.882812 1.835938 C 33.75 1.972656 33.625 2.125 33.507812 2.289062 Z M 47.769531 3.070312 C 46.476562 2.730469 45.113281 2.464844 43.695312 2.28125 C 43.582031 2.121094 43.460938 1.972656 43.332031 1.835938 C 44.84375 2.097656 46.328125 2.476562 47.765625 2.980469 C 47.757812 3.011719 47.757812 3.039062 47.769531 3.070312 Z M 48.40625 3.242188 C 48.394531 3.230469 48.378906 3.21875 48.363281 3.203125 C 48.449219 3.238281 48.539062 3.269531 48.625 3.304688 C 48.554688 3.285156 48.480469 3.261719 48.40625 3.242188 Z M 56.453125 10.152344 C 55.65625 9.769531 54.808594 9.40625 53.90625 9.070312 C 53.160156 8.796875 52.394531 8.542969 51.609375 8.3125 C 51.421875 7.761719 51.207031 7.242188 50.972656 6.746094 C 52.664062 7.25 54.230469 7.851562 55.628906 8.550781 C 55.933594 9.054688 56.207031 9.589844 56.453125 10.152344 Z M 59.175781 10.792969 C 59.535156 11.320312 59.867188 11.859375 60.167969 12.410156 C 59.21875 11.675781 58.121094 10.988281 56.882812 10.363281 C 56.660156 9.820312 56.410156 9.300781 56.136719 8.808594 C 57.273438 9.410156 58.292969 10.070312 59.175781 10.792969 Z M 60.761719 12.898438 C 60.59375 12.554688 60.410156 12.21875 60.21875 11.882812 C 60.628906 12.402344 61.023438 12.929688 61.394531 13.46875 C 61.191406 13.277344 60.980469 13.082031 60.761719 12.898438 Z M 63.699219 22.621094 C 63.453125 22.378906 63.195312 22.144531 62.925781 21.90625 C 62.898438 20 62.632812 18.152344 62.128906 16.386719 C 63.117188 17.300781 63.894531 18.285156 64.4375 19.328125 C 64.707031 20.046875 64.945312 20.777344 65.152344 21.519531 C 65.300781 22.578125 65.375 23.640625 65.378906 24.710938 C 64.933594 23.996094 64.375 23.300781 63.699219 22.621094 Z M 62.746094 29.125 C 62.542969 28.917969 62.324219 28.71875 62.101562 28.523438 C 62.144531 28.359375 62.1875 28.195312 62.222656 28.035156 C 62.671875 26.152344 62.898438 24.308594 62.917969 22.515625 C 63.074219 22.65625 63.226562 22.800781 63.371094 22.949219 C 64.234375 23.808594 64.898438 24.703125 65.367188 25.617188 C 65.304688 27.535156 65.011719 29.457031 64.496094 31.347656 C 64.050781 30.585938 63.464844 29.84375 62.746094 29.125 Z M 63.359375 34.652344 C 62.9375 33.941406 62.386719 33.253906 61.71875 32.582031 C 61.492188 32.359375 61.257812 32.144531 61.011719 31.925781 C 61.402344 30.90625 61.742188 29.882812 62.019531 28.855469 C 62.191406 29.015625 62.363281 29.175781 62.53125 29.339844 C 63.316406 30.125 63.933594 30.9375 64.382812 31.765625 C 64.101562 32.738281 63.757812 33.703125 63.359375 34.652344 Z M 65.261719 35.722656 C 65 36.425781 64.714844 37.097656 64.40625 37.746094 C 64.316406 36.804688 64.03125 35.882812 63.546875 34.984375 C 63.949219 34.054688 64.296875 33.117188 64.585938 32.164062 C 65.050781 33.144531 65.285156 34.152344 65.285156 35.179688 C 65.285156 35.359375 65.277344 35.542969 65.261719 35.722656 Z M 64.433594 38.382812 C 64.574219 38.109375 64.707031 37.828125 64.839844 37.542969 C 64.707031 37.945312 64.570312 38.339844 64.421875 38.738281 C 64.429688 38.617188 64.433594 38.503906 64.433594 38.382812 Z M 52.417969 51.335938 C 52.605469 50.890625 52.703125 50.4375 52.71875 49.96875 C 54.511719 49.035156 56.375 47.835938 58.144531 46.324219 C 58.09375 47.09375 57.851562 47.855469 57.4375 48.59375 C 55.882812 49.738281 54.164062 50.644531 52.417969 51.335938 Z M 49.742188 54.25 C 49.71875 54.257812 49.695312 54.269531 49.671875 54.273438 C 50.074219 54.015625 50.445312 53.75 50.777344 53.464844 C 51.34375 53.296875 51.90625 53.09375 52.453125 52.871094 C 51.574219 53.378906 50.671875 53.839844 49.742188 54.25 Z M 26.398438 53.453125 C 26.71875 53.734375 27.078125 54 27.46875 54.25 C 27.460938 54.25 27.453125 54.246094 27.445312 54.242188 C 26.523438 53.835938 25.617188 53.375 24.742188 52.863281 C 25.28125 53.085938 25.835938 53.285156 26.398438 53.453125 Z M 19.0625 46.324219 C 20.832031 47.832031 22.695312 49.03125 24.488281 49.964844 C 24.5 50.429688 24.597656 50.886719 24.78125 51.332031 C 23.039062 50.636719 21.320312 49.734375 19.765625 48.589844 C 19.351562 47.851562 19.109375 47.089844 19.0625 46.324219 Z M 12.769531 38.371094 C 12.769531 38.492188 12.777344 38.609375 12.78125 38.734375 C 12.628906 38.328125 12.488281 37.921875 12.355469 37.511719 C 12.488281 37.804688 12.625 38.09375 12.769531 38.371094 Z M 16.195312 31.921875 C 15.949219 32.140625 15.710938 32.355469 15.488281 32.582031 C 14.816406 33.25 14.273438 33.941406 13.851562 34.644531 C 13.4375 33.664062 13.085938 32.667969 12.796875 31.660156 C 13.363281 30.648438 14.167969 29.6875 15.175781 28.789062 C 15.453125 29.835938 15.796875 30.882812 16.195312 31.921875 Z M 19.523438 25.914062 C 19.742188 27.011719 20.007812 28.117188 20.320312 29.21875 C 18.847656 29.957031 17.542969 30.792969 16.445312 31.710938 C 16.046875 30.664062 15.707031 29.613281 15.433594 28.566406 C 16.570312 27.59375 17.945312 26.707031 19.523438 25.914062 Z M 19.359375 13.527344 C 19.039062 15.003906 18.847656 16.597656 18.8125 18.304688 C 18.804688 18.519531 18.808594 18.734375 18.808594 18.949219 C 17.210938 19.746094 15.792969 20.648438 14.601562 21.640625 C 14.652344 19.703125 14.953125 17.832031 15.507812 16.046875 C 16.589844 15.128906 17.886719 14.285156 19.359375 13.527344 Z M 19.449219 13.113281 C 18.015625 13.839844 16.75 14.640625 15.679688 15.5 C 15.964844 14.675781 16.300781 13.871094 16.691406 13.085938 C 17.675781 12.242188 18.847656 11.46875 20.171875 10.773438 C 19.890625 11.511719 19.644531 12.292969 19.449219 13.113281 Z M 24.902344 10.996094 C 23.78125 11.324219 22.703125 11.695312 21.6875 12.101562 C 21.035156 12.367188 20.410156 12.644531 19.8125 12.933594 C 20.023438 12.101562 20.277344 11.304688 20.578125 10.5625 C 22.046875 9.824219 23.699219 9.183594 25.484375 8.652344 C 25.253906 9.382812 25.054688 10.164062 24.902344 10.996094 Z M 31.757812 7.3125 C 31.636719 8.046875 31.535156 8.816406 31.460938 9.609375 C 29.285156 9.910156 27.191406 10.339844 25.230469 10.898438 C 25.394531 10.058594 25.597656 9.277344 25.84375 8.546875 C 27.6875 8.015625 29.671875 7.601562 31.757812 7.3125 Z M 32.132812 5.5 C 32.011719 5.976562 31.90625 6.476562 31.808594 7.003906 C 29.773438 7.28125 27.808594 7.683594 25.960938 8.207031 C 26.160156 7.652344 26.378906 7.128906 26.625 6.636719 C 28.347656 6.148438 30.199219 5.765625 32.132812 5.5 Z M 38.449219 4.761719 C 36.421875 4.765625 34.433594 4.894531 32.53125 5.136719 C 32.832031 4.101562 33.210938 3.230469 33.664062 2.578125 C 35.214844 2.375 36.816406 2.269531 38.449219 2.261719 Z M 44.679688 5.136719 C 42.773438 4.894531 40.785156 4.765625 38.753906 4.761719 L 38.753906 2.261719 C 40.394531 2.265625 41.996094 2.371094 43.535156 2.566406 C 43.996094 3.222656 44.371094 4.09375 44.679688 5.136719 Z M 45.398438 7 C 45.304688 6.476562 45.199219 5.972656 45.074219 5.496094 C 47.011719 5.761719 48.859375 6.144531 50.582031 6.632812 C 50.828125 7.125 51.050781 7.652344 51.25 8.207031 C 49.398438 7.679688 47.4375 7.277344 45.398438 7 Z M 51.976562 10.886719 C 50.03125 10.335938 47.941406 9.902344 45.75 9.601562 C 45.671875 8.808594 45.574219 8.042969 45.449219 7.3125 C 47.539062 7.597656 49.523438 8.015625 51.367188 8.542969 C 51.609375 9.273438 51.8125 10.050781 51.976562 10.886719 Z M 57.394531 12.914062 C 55.859375 12.171875 54.152344 11.523438 52.304688 10.984375 C 52.148438 10.152344 51.957031 9.378906 51.722656 8.648438 C 53.511719 9.183594 55.160156 9.820312 56.628906 10.554688 C 56.929688 11.296875 57.183594 12.085938 57.394531 12.914062 Z M 57.757812 13.089844 C 57.558594 12.273438 57.316406 11.5 57.035156 10.769531 C 58.359375 11.460938 59.527344 12.234375 60.511719 13.078125 C 60.898438 13.851562 61.238281 14.652344 61.519531 15.46875 C 60.441406 14.605469 59.175781 13.804688 57.757812 13.089844 Z M 58.402344 18.945312 C 58.402344 18.734375 58.402344 18.519531 58.398438 18.304688 C 58.359375 16.578125 58.167969 14.960938 57.839844 13.46875 C 59.308594 14.222656 60.605469 15.070312 61.683594 15.992188 C 62.246094 17.796875 62.558594 19.683594 62.609375 21.636719 C 61.414062 20.648438 60 19.746094 58.402344 18.945312 Z M 56.886719 29.21875 C 57.199219 28.128906 57.460938 27.039062 57.675781 25.957031 C 59.257812 26.757812 60.628906 27.652344 61.757812 28.628906 C 61.488281 29.65625 61.15625 30.691406 60.765625 31.714844 C 59.664062 30.792969 58.359375 29.960938 56.886719 29.21875 Z M 59.4375 34.746094 C 58.414062 33.890625 57.203125 33.113281 55.835938 32.425781 C 56.195312 31.460938 56.515625 30.492188 56.800781 29.515625 C 58.269531 30.257812 59.5625 31.09375 60.648438 32.015625 C 60.289062 32.933594 59.886719 33.84375 59.4375 34.746094 Z M 61.917969 37.578125 C 61.515625 36.890625 60.988281 36.21875 60.335938 35.5625 C 60.128906 35.355469 59.902344 35.152344 59.675781 34.953125 C 60.128906 34.054688 60.53125 33.144531 60.894531 32.230469 C 61.101562 32.417969 61.308594 32.605469 61.5 32.796875 C 62.214844 33.515625 62.78125 34.25 63.207031 35.007812 C 62.824219 35.875 62.398438 36.734375 61.917969 37.578125 Z M 46.015625 52.09375 C 45.992188 51.863281 45.929688 51.632812 45.828125 51.40625 C 48.046875 50.550781 50.121094 49.507812 52.03125 48.289062 C 52.273438 48.773438 52.398438 49.273438 52.410156 49.785156 C 50.011719 51.015625 47.746094 51.757812 46.015625 52.09375 Z M 45.902344 53.003906 C 45.972656 52.8125 46.011719 52.609375 46.023438 52.40625 C 47.746094 52.070312 50 51.34375 52.402344 50.128906 C 52.367188 50.589844 52.238281 51.046875 52.019531 51.488281 C 49.914062 52.28125 47.796875 52.777344 45.902344 53.003906 Z M 44.347656 54.738281 C 44.617188 54.570312 44.859375 54.386719 45.070312 54.195312 C 46.648438 54.300781 48.359375 54.109375 50.046875 53.671875 C 49.585938 54.007812 49.0625 54.324219 48.496094 54.609375 C 47.191406 54.925781 46.140625 54.933594 44.347656 54.738281 Z M 34.890625 55.609375 C 35.996094 55.929688 37.269531 56.113281 38.601562 56.113281 C 39.261719 56.113281 39.898438 56.070312 40.503906 55.992188 C 40.707031 56.191406 40.917969 56.355469 41.132812 56.476562 C 40.296875 56.550781 39.453125 56.59375 38.601562 56.59375 C 36.734375 56.59375 34.894531 56.40625 33.101562 56.046875 C 33.726562 55.992188 34.304688 55.847656 34.890625 55.609375 Z M 32.148438 54.195312 C 32.359375 54.386719 32.601562 54.570312 32.871094 54.738281 C 31.066406 54.933594 30.015625 54.925781 28.703125 54.605469 C 28.136719 54.320312 27.617188 54.007812 27.15625 53.667969 C 28.847656 54.109375 30.566406 54.300781 32.148438 54.195312 Z M 31.183594 52.40625 C 31.195312 52.605469 31.234375 52.808594 31.304688 53.003906 C 29.410156 52.773438 27.289062 52.28125 25.183594 51.484375 C 24.964844 51.042969 24.835938 50.589844 24.804688 50.128906 C 27.203125 51.339844 29.457031 52.070312 31.183594 52.40625 Z M 25.171875 48.28125 C 27.085938 49.507812 29.160156 50.550781 31.378906 51.402344 C 31.273438 51.628906 31.210938 51.859375 31.1875 52.09375 C 29.457031 51.753906 27.195312 51.011719 24.792969 49.78125 C 24.804688 49.265625 24.9375 48.765625 25.171875 48.28125 Z M 15.117188 37.882812 C 14.667969 38.726562 14.40625 39.59375 14.335938 40.484375 C 13.886719 39.789062 13.464844 39.070312 13.078125 38.304688 C 13.089844 37.289062 13.34375 36.300781 13.816406 35.351562 C 14.203125 36.210938 14.636719 37.054688 15.117188 37.882812 Z M 17.535156 34.949219 C 17.300781 35.152344 17.078125 35.355469 16.867188 35.5625 C 16.21875 36.214844 15.691406 36.886719 15.289062 37.574219 C 14.8125 36.730469 14.382812 35.875 14.003906 35.007812 C 14.550781 34.027344 15.332031 33.097656 16.3125 32.230469 C 16.675781 33.140625 17.082031 34.050781 17.535156 34.949219 Z M 21.375 32.421875 C 20.003906 33.109375 18.792969 33.886719 17.769531 34.742188 C 17.320312 33.84375 16.917969 32.929688 16.558594 32.015625 C 17.632812 31.109375 18.929688 30.273438 20.410156 29.527344 C 20.695312 30.496094 21.015625 31.464844 21.375 32.421875 Z M 25.726562 27.476562 C 25.9375 28.464844 26.175781 29.464844 26.441406 30.46875 C 24.699219 30.972656 23.09375 31.582031 21.648438 32.285156 C 21.292969 31.324219 20.972656 30.359375 20.6875 29.390625 C 22.195312 28.65625 23.890625 28.011719 25.726562 27.476562 Z M 25.039062 23.78125 C 25.210938 24.890625 25.414062 26.019531 25.65625 27.164062 C 23.824219 27.695312 22.125 28.335938 20.601562 29.082031 C 20.289062 27.976562 20.023438 26.871094 19.804688 25.773438 C 21.375 25.007812 23.132812 24.335938 25.039062 23.78125 Z M 24.449219 17.261719 C 24.488281 19.214844 24.671875 21.296875 24.992188 23.464844 C 23.089844 24.015625 21.328125 24.679688 19.742188 25.453125 C 19.34375 23.359375 19.132812 21.296875 19.109375 19.316406 C 20.707031 18.527344 22.5 17.839844 24.449219 17.261719 Z M 24.554688 13.570312 C 24.464844 14.589844 24.429688 15.664062 24.4375 16.777344 C 22.515625 17.339844 20.726562 18.019531 19.113281 18.796875 C 19.113281 18.636719 19.113281 18.472656 19.117188 18.3125 C 19.15625 16.535156 19.359375 14.871094 19.710938 13.347656 C 21.253906 12.585938 22.972656 11.914062 24.839844 11.351562 C 24.71875 12.058594 24.621094 12.792969 24.554688 13.570312 Z M 31.230469 15.355469 C 28.949219 15.664062 26.773438 16.113281 24.742188 16.6875 C 24.734375 15.628906 24.773438 14.59375 24.859375 13.59375 C 24.929688 12.777344 25.035156 11.996094 25.164062 11.261719 C 27.121094 10.6875 29.226562 10.238281 31.429688 9.929688 C 31.277344 11.679688 31.21875 13.539062 31.230469 15.355469 Z M 38.449219 9.429688 L 38.449219 14.871094 C 36.058594 14.878906 33.722656 15.035156 31.480469 15.324219 C 31.476562 13.386719 31.546875 11.554688 31.699219 9.890625 C 33.871094 9.601562 36.132812 9.441406 38.449219 9.429688 Z M 38.449219 6.855469 L 38.449219 9.125 C 36.171875 9.132812 33.914062 9.285156 31.730469 9.570312 C 31.8125 8.765625 31.914062 7.992188 32.042969 7.277344 C 34.09375 7.007812 36.242188 6.863281 38.449219 6.855469 Z M 38.449219 6.546875 C 36.277344 6.554688 34.152344 6.695312 32.097656 6.960938 C 32.199219 6.433594 32.3125 5.929688 32.4375 5.460938 C 34.371094 5.207031 36.386719 5.074219 38.449219 5.066406 Z M 38.753906 6.546875 L 38.753906 5.066406 C 40.820312 5.074219 42.835938 5.207031 44.769531 5.457031 C 44.898438 5.925781 45.007812 6.429688 45.109375 6.960938 C 43.054688 6.695312 40.925781 6.554688 38.753906 6.546875 Z M 38.753906 9.125 L 38.753906 6.855469 C 40.964844 6.859375 43.113281 7.003906 45.167969 7.273438 C 45.292969 7.992188 45.394531 8.757812 45.476562 9.5625 C 43.324219 9.28125 41.066406 9.132812 38.753906 9.125 Z M 45.726562 15.324219 C 43.488281 15.03125 41.148438 14.875 38.753906 14.871094 L 38.753906 9.429688 C 41.082031 9.4375 43.34375 9.59375 45.507812 9.875 C 45.664062 11.542969 45.734375 13.382812 45.726562 15.324219 Z M 52.351562 13.59375 C 52.4375 14.59375 52.472656 15.628906 52.464844 16.6875 C 50.4375 16.113281 48.261719 15.664062 45.980469 15.355469 C 45.988281 13.53125 45.933594 11.667969 45.777344 9.910156 C 47.988281 10.214844 50.085938 10.65625 52.035156 11.214844 C 52.171875 11.96875 52.277344 12.761719 52.351562 13.59375 Z M 52.769531 16.777344 C 52.78125 15.664062 52.742188 14.589844 52.65625 13.570312 C 52.585938 12.78125 52.488281 12.03125 52.363281 11.308594 C 54.230469 11.863281 55.949219 12.527344 57.488281 13.289062 C 57.84375 14.832031 58.050781 16.511719 58.09375 18.3125 C 58.097656 18.472656 58.09375 18.636719 58.097656 18.796875 C 56.484375 18.015625 54.695312 17.339844 52.769531 16.777344 Z M 52.210938 23.492188 C 52.539062 21.308594 52.722656 19.214844 52.761719 17.246094 C 54.699219 17.820312 56.492188 18.511719 58.097656 19.308594 C 58.078125 21.300781 57.859375 23.382812 57.460938 25.492188 C 55.878906 24.714844 54.113281 24.046875 52.210938 23.492188 Z M 51.550781 27.167969 C 51.792969 26.03125 51.992188 24.914062 52.164062 23.816406 C 52.394531 23.882812 52.628906 23.945312 52.859375 24.015625 C 54.507812 24.535156 56.023438 25.136719 57.394531 25.8125 C 57.179688 26.898438 56.917969 27.992188 56.609375 29.082031 C 55.082031 28.339844 53.386719 27.695312 51.550781 27.167969 Z M 50.769531 30.46875 C 51.035156 29.460938 51.273438 28.457031 51.484375 27.464844 C 53.316406 27.992188 55.007812 28.636719 56.523438 29.378906 C 56.238281 30.351562 55.917969 31.324219 55.5625 32.289062 C 54.117188 31.585938 52.507812 30.972656 50.769531 30.46875 Z M 54.523438 34.851562 C 53.90625 36.242188 53.226562 37.585938 52.484375 38.878906 C 51.3125 38.304688 50.007812 37.808594 48.597656 37.398438 C 49.015625 36.269531 49.414062 35.105469 49.785156 33.917969 C 50.113281 32.859375 50.417969 31.808594 50.695312 30.769531 C 52.421875 31.265625 54.019531 31.871094 55.457031 32.574219 C 55.164062 33.339844 54.859375 34.101562 54.523438 34.851562 Z M 55.601562 40.855469 C 54.789062 40.179688 53.832031 39.5625 52.757812 39.015625 C 53.5 37.71875 54.183594 36.371094 54.804688 34.976562 C 55.136719 34.226562 55.445312 33.472656 55.730469 32.710938 C 57.085938 33.398438 58.285156 34.171875 59.292969 35.023438 C 58.273438 37.027344 57.035156 38.984375 55.601562 40.855469 Z M 56.363281 41.546875 C 56.195312 41.378906 56.015625 41.214844 55.832031 41.054688 C 57.265625 39.1875 58.507812 37.234375 59.53125 35.230469 C 59.734375 35.414062 59.933594 35.59375 60.117188 35.78125 C 60.800781 36.464844 61.339844 37.164062 61.738281 37.882812 C 61.632812 38.066406 61.527344 38.25 61.417969 38.429688 C 60.34375 40.167969 59.09375 41.78125 57.691406 43.257812 C 57.355469 42.667969 56.914062 42.101562 56.363281 41.546875 Z M 51.222656 46.671875 C 51.117188 46.570312 51.003906 46.46875 50.890625 46.371094 C 52.566406 44.882812 54.152344 43.199219 55.585938 41.378906 C 55.605469 41.351562 55.625 41.320312 55.644531 41.296875 C 55.820312 41.449219 55.988281 41.605469 56.144531 41.761719 C 56.703125 42.320312 57.140625 42.898438 57.46875 43.488281 C 55.886719 45.117188 54.101562 46.574219 52.144531 47.847656 C 51.910156 47.445312 51.601562 47.054688 51.222656 46.671875 Z M 45.210938 50.535156 C 45.1875 50.511719 45.167969 50.496094 45.144531 50.476562 C 47.023438 49.449219 48.886719 48.121094 50.660156 46.574219 C 50.78125 46.675781 50.898438 46.78125 51.007812 46.890625 C 51.371094 47.257812 51.664062 47.632812 51.890625 48.015625 C 49.976562 49.238281 47.902344 50.28125 45.683594 51.132812 C 45.558594 50.925781 45.402344 50.726562 45.210938 50.535156 Z M 26.539062 46.566406 C 28.316406 48.117188 30.183594 49.445312 32.0625 50.472656 C 32.039062 50.496094 32.015625 50.511719 31.996094 50.535156 C 31.804688 50.726562 31.648438 50.925781 31.519531 51.132812 C 29.300781 50.28125 27.230469 49.234375 25.316406 48.015625 C 25.613281 47.503906 26.027344 47.019531 26.539062 46.566406 Z M 21.558594 41.292969 C 21.582031 41.320312 21.601562 41.351562 21.625 41.378906 C 23.054688 43.199219 24.640625 44.882812 26.316406 46.367188 C 26.203125 46.46875 26.089844 46.570312 25.980469 46.671875 C 25.601562 47.050781 25.292969 47.445312 25.058594 47.847656 C 23.105469 46.574219 21.320312 45.113281 19.738281 43.488281 C 20.164062 42.714844 20.78125 41.976562 21.558594 41.292969 Z M 21.375 41.050781 C 21.191406 41.210938 21.011719 41.378906 20.84375 41.546875 C 20.289062 42.097656 19.851562 42.667969 19.515625 43.25 C 18.109375 41.777344 16.863281 40.167969 15.792969 38.429688 C 15.679688 38.25 15.578125 38.066406 15.46875 37.882812 C 15.988281 36.945312 16.734375 36.058594 17.675781 35.230469 C 18.703125 37.230469 19.941406 39.183594 21.375 41.050781 Z M 22.40625 34.976562 C 23.023438 36.367188 23.707031 37.714844 24.449219 39.011719 C 23.375 39.5625 22.417969 40.179688 21.609375 40.851562 C 20.175781 38.984375 18.933594 37.027344 17.914062 35.023438 C 18.914062 34.183594 20.113281 33.410156 21.480469 32.722656 C 21.769531 33.480469 22.078125 34.230469 22.40625 34.976562 Z M 27.425781 33.917969 C 27.796875 35.105469 28.195312 36.269531 28.609375 37.398438 C 27.199219 37.804688 25.894531 38.304688 24.722656 38.878906 C 23.984375 37.585938 23.300781 36.242188 22.683594 34.851562 C 22.351562 34.105469 22.046875 33.347656 21.757812 32.582031 C 23.183594 31.890625 24.78125 31.28125 26.519531 30.78125 C 26.796875 31.816406 27.09375 32.867188 27.425781 33.917969 Z M 32.265625 29.582031 C 32.574219 31.945312 32.933594 34.25 33.332031 36.410156 C 31.789062 36.621094 30.316406 36.921875 28.9375 37.304688 C 28.160156 35.210938 27.445312 32.980469 26.835938 30.691406 C 28.527344 30.214844 30.347656 29.84375 32.265625 29.582031 Z M 31.867188 26.199219 C 31.972656 27.226562 32.09375 28.257812 32.222656 29.273438 C 30.304688 29.53125 28.46875 29.902344 26.753906 30.382812 C 26.492188 29.394531 26.253906 28.394531 26.039062 27.390625 C 27.851562 26.882812 29.808594 26.476562 31.867188 26.199219 Z M 31.523438 22.425781 C 31.578125 23.140625 31.632812 23.796875 31.6875 24.375 C 31.730469 24.878906 31.78125 25.386719 31.835938 25.890625 C 29.773438 26.164062 27.804688 26.566406 25.96875 27.078125 C 25.730469 25.949219 25.519531 24.820312 25.347656 23.691406 C 27.269531 23.148438 29.34375 22.722656 31.523438 22.425781 Z M 31.503906 22.121094 C 29.324219 22.410156 27.242188 22.832031 25.300781 23.378906 C 24.980469 21.269531 24.785156 19.179688 24.75 17.171875 C 26.761719 16.59375 28.9375 16.136719 31.234375 15.824219 C 31.253906 18.09375 31.371094 20.289062 31.503906 22.121094 Z M 38.449219 21.65625 C 36.152344 21.660156 33.90625 21.808594 31.75 22.085938 C 31.59375 19.925781 31.5 17.804688 31.484375 15.789062 C 33.707031 15.492188 36.042969 15.339844 38.449219 15.332031 Z M 45.457031 22.097656 C 43.304688 21.816406 41.054688 21.664062 38.753906 21.65625 L 38.753906 15.332031 C 41.148438 15.335938 43.488281 15.492188 45.726562 15.785156 C 45.710938 17.804688 45.617188 19.929688 45.457031 22.097656 Z M 45.707031 22.128906 C 45.839844 20.292969 45.953125 18.097656 45.976562 15.816406 C 48.257812 16.125 50.433594 16.578125 52.460938 17.160156 C 52.421875 19.175781 52.226562 21.28125 51.90625 23.402344 C 49.96875 22.851562 47.886719 22.421875 45.707031 22.128906 Z M 45.375 25.890625 C 45.425781 25.386719 45.476562 24.878906 45.523438 24.375 C 45.574219 23.800781 45.628906 23.152344 45.683594 22.441406 C 47.835938 22.734375 49.910156 23.167969 51.859375 23.726562 C 51.683594 24.84375 51.476562 25.960938 51.238281 27.078125 C 49.402344 26.566406 47.433594 26.164062 45.375 25.890625 Z M 44.984375 29.273438 C 45.113281 28.253906 45.234375 27.226562 45.34375 26.191406 C 47.390625 26.46875 49.351562 26.863281 51.175781 27.375 C 50.957031 28.386719 50.71875 29.390625 50.457031 30.382812 C 48.738281 29.902344 46.90625 29.53125 44.984375 29.273438 Z M 43.875 36.410156 C 44.273438 34.246094 44.636719 31.941406 44.945312 29.578125 C 46.851562 29.835938 48.675781 30.203125 50.378906 30.679688 C 49.765625 32.972656 49.046875 35.210938 48.273438 37.308594 C 46.894531 36.921875 45.417969 36.621094 43.875 36.410156 Z M 45.523438 43.671875 C 44.550781 43.402344 43.511719 43.183594 42.425781 43.03125 C 42.917969 41.171875 43.390625 39.027344 43.824219 36.710938 C 45.347656 36.917969 46.804688 37.214844 48.167969 37.59375 C 47.335938 39.820312 46.433594 41.878906 45.523438 43.671875 Z M 48.425781 44.761719 C 47.640625 44.378906 46.777344 44.046875 45.84375 43.765625 C 46.765625 41.953125 47.664062 39.894531 48.492188 37.683594 C 49.886719 38.085938 51.179688 38.578125 52.335938 39.144531 C 51.171875 41.152344 49.859375 43.03125 48.425781 44.761719 Z M 48.703125 44.902344 C 50.132812 43.171875 51.445312 41.289062 52.609375 39.28125 C 53.671875 39.820312 54.613281 40.433594 55.414062 41.097656 C 55.390625 41.128906 55.367188 41.15625 55.34375 41.1875 C 53.914062 43.007812 52.328125 44.6875 50.660156 46.167969 C 50.097656 45.703125 49.441406 45.277344 48.703125 44.902344 Z M 45.703125 44.042969 C 46.613281 44.3125 47.460938 44.628906 48.222656 44.996094 C 46.828125 46.652344 45.316406 48.167969 43.707031 49.507812 C 43.339844 49.332031 42.9375 49.171875 42.507812 49.039062 C 43.550781 47.8125 44.640625 46.09375 45.703125 44.042969 Z M 42.347656 43.332031 C 43.410156 43.476562 44.429688 43.6875 45.382812 43.953125 C 44.300781 46.050781 43.207031 47.765625 42.1875 48.945312 C 41.652344 48.796875 41.082031 48.679688 40.488281 48.601562 C 41.101562 47.417969 41.734375 45.59375 42.347656 43.332031 Z M 38.753906 43.082031 C 39.890625 43.085938 41 43.160156 42.066406 43.292969 C 41.445312 45.558594 40.796875 47.382812 40.160156 48.5625 C 39.707031 48.511719 39.234375 48.484375 38.753906 48.480469 Z M 37.046875 48.5625 C 36.410156 47.382812 35.761719 45.558594 35.144531 43.292969 C 36.199219 43.15625 37.308594 43.085938 38.449219 43.078125 L 38.449219 48.480469 C 37.972656 48.484375 37.5 48.511719 37.046875 48.5625 Z M 35.023438 48.945312 C 34.003906 47.765625 32.910156 46.050781 31.828125 43.953125 C 32.777344 43.691406 33.792969 43.480469 34.863281 43.332031 C 35.472656 45.597656 36.105469 47.417969 36.722656 48.601562 C 36.125 48.675781 35.554688 48.792969 35.023438 48.945312 Z M 33.503906 49.507812 C 31.894531 48.167969 30.382812 46.652344 28.984375 45 C 29.75 44.636719 30.59375 44.316406 31.507812 44.042969 C 32.570312 46.09375 33.660156 47.8125 34.699219 49.035156 C 34.269531 49.171875 33.867188 49.328125 33.503906 49.507812 Z M 28.503906 44.898438 C 27.769531 45.277344 27.109375 45.703125 26.546875 46.164062 C 24.878906 44.683594 23.292969 43.007812 21.867188 41.1875 C 21.839844 41.15625 21.816406 41.125 21.792969 41.09375 C 22.585938 40.4375 23.53125 39.832031 24.601562 39.289062 C 25.765625 41.292969 27.074219 43.171875 28.503906 44.898438 Z M 31.363281 43.765625 C 30.433594 44.042969 29.566406 44.375 28.785156 44.757812 C 27.351562 43.03125 26.042969 41.15625 24.878906 39.152344 C 26.027344 38.589844 27.320312 38.101562 28.71875 37.695312 C 29.546875 39.898438 30.445312 41.957031 31.363281 43.765625 Z M 34.78125 43.03125 C 33.695312 43.183594 32.660156 43.402344 31.6875 43.671875 C 30.777344 41.878906 29.878906 39.820312 29.046875 37.597656 C 30.402344 37.222656 31.855469 36.925781 33.386719 36.714844 C 33.820312 39.027344 34.292969 41.171875 34.78125 43.03125 Z M 38.449219 36.367188 L 38.449219 42.773438 C 37.285156 42.78125 36.152344 42.859375 35.0625 42.996094 C 34.566406 41.136719 34.085938 38.992188 33.648438 36.679688 C 35.183594 36.480469 36.792969 36.375 38.449219 36.367188 Z M 38.449219 29.160156 L 38.449219 36.0625 C 36.78125 36.066406 35.152344 36.175781 33.59375 36.375 C 33.1875 34.210938 32.824219 31.902344 32.515625 29.546875 C 34.414062 29.300781 36.402344 29.167969 38.449219 29.160156 Z M 38.449219 25.75 L 38.449219 28.855469 C 36.398438 28.859375 34.398438 28.992188 32.476562 29.238281 C 32.34375 28.222656 32.222656 27.195312 32.113281 26.160156 C 34.140625 25.902344 36.261719 25.757812 38.449219 25.75 Z M 38.449219 25.445312 C 36.265625 25.449219 34.128906 25.589844 32.082031 25.855469 C 31.964844 24.699219 31.859375 23.539062 31.773438 22.394531 C 33.90625 22.117188 36.144531 21.96875 38.449219 21.960938 Z M 38.753906 25.445312 L 38.753906 21.964844 C 41.027344 21.972656 43.269531 22.128906 45.433594 22.410156 C 45.351562 23.550781 45.246094 24.703125 45.125 25.855469 C 43.078125 25.589844 40.941406 25.449219 38.753906 25.445312 Z M 38.753906 28.855469 L 38.753906 25.75 C 40.933594 25.757812 43.058594 25.894531 45.097656 26.15625 C 44.988281 27.191406 44.867188 28.222656 44.734375 29.242188 C 42.8125 28.992188 40.808594 28.859375 38.753906 28.855469 Z M 38.753906 36.0625 L 38.753906 29.160156 C 40.792969 29.164062 42.785156 29.296875 44.695312 29.542969 C 44.386719 31.902344 44.019531 34.210938 43.617188 36.378906 C 42.054688 36.175781 40.421875 36.066406 38.753906 36.0625 Z M 38.753906 36.367188 C 40.40625 36.375 42.015625 36.476562 43.5625 36.675781 C 43.125 38.992188 42.644531 41.136719 42.144531 43 C 41.054688 42.859375 39.917969 42.78125 38.753906 42.773438 Z M 32.300781 50.257812 C 30.425781 49.238281 28.550781 47.917969 26.773438 46.363281 C 27.320312 45.921875 27.96875 45.511719 28.703125 45.140625 C 30.097656 46.796875 31.605469 48.308594 33.207031 49.660156 C 32.871094 49.839844 32.566406 50.039062 32.300781 50.257812 Z M 44 49.660156 C 45.605469 48.3125 47.113281 46.796875 48.503906 45.140625 C 49.230469 45.511719 49.875 45.921875 50.425781 46.375 C 48.648438 47.921875 46.78125 49.242188 44.90625 50.261719 C 44.640625 50.042969 44.339844 49.84375 44 49.660156 Z M 41.785156 56.40625 C 41.476562 56.335938 41.179688 56.175781 40.894531 55.933594 C 41.398438 55.851562 41.875 55.742188 42.324219 55.613281 C 42.910156 55.847656 43.484375 55.992188 44.101562 56.046875 C 43.339844 56.199219 42.5625 56.316406 41.785156 56.40625 Z M 44.882812 53.730469 C 43.71875 54.898438 41.25 55.652344 38.601562 55.652344 C 35.953125 55.652344 33.488281 54.898438 32.320312 53.730469 C 31.867188 53.277344 31.636719 52.792969 31.636719 52.296875 C 31.636719 50.441406 34.761719 48.933594 38.601562 48.933594 C 41.25 48.933594 43.71875 49.691406 44.882812 50.859375 C 45.339844 51.3125 45.570312 51.796875 45.570312 52.296875 C 45.570312 52.792969 45.339844 53.277344 44.882812 53.730469 Z M 14.617188 40.925781 C 14.632812 39.988281 14.871094 39.078125 15.304688 38.199219 C 15.378906 38.332031 15.453125 38.460938 15.535156 38.59375 C 16.632812 40.375 17.917969 42.027344 19.363281 43.539062 C 19.015625 44.226562 18.816406 44.933594 18.765625 45.65625 C 17.269531 44.316406 15.851562 42.75 14.617188 40.925781 Z M 19.054688 45.914062 C 19.074219 45.175781 19.257812 44.460938 19.589844 43.773438 C 21.179688 45.390625 22.960938 46.847656 24.914062 48.117188 C 24.667969 48.609375 24.53125 49.113281 24.496094 49.628906 C 22.691406 48.675781 20.824219 47.453125 19.054688 45.914062 Z M 26.199219 52.855469 C 25.886719 52.546875 25.632812 52.226562 25.425781 51.902344 C 27.507812 52.65625 29.59375 53.121094 31.453125 53.332031 C 31.558594 53.53125 31.691406 53.71875 31.855469 53.90625 C 30.167969 53.980469 28.332031 53.71875 26.554688 53.1875 C 26.433594 53.078125 26.308594 52.96875 26.199219 52.855469 Z M 30.691406 55.445312 C 30.394531 55.34375 30.101562 55.234375 29.820312 55.121094 C 30.800781 55.230469 31.8125 55.167969 33.328125 54.992188 C 33.664062 55.167969 34.027344 55.324219 34.421875 55.457031 C 33.589844 55.738281 32.757812 55.824219 31.742188 55.730469 C 31.738281 55.730469 31.730469 55.730469 31.730469 55.730469 C 31.382812 55.644531 31.035156 55.546875 30.691406 55.445312 Z M 46.511719 55.445312 C 46.167969 55.546875 45.824219 55.640625 45.476562 55.730469 C 45.472656 55.730469 45.472656 55.730469 45.46875 55.730469 C 44.453125 55.824219 43.628906 55.738281 42.800781 55.460938 C 43.195312 55.324219 43.5625 55.167969 43.894531 54.996094 C 45.398438 55.167969 46.40625 55.230469 47.382812 55.121094 C 47.101562 55.234375 46.808594 55.34375 46.511719 55.445312 Z M 50.648438 53.1875 C 48.871094 53.71875 47.039062 53.980469 45.359375 53.90625 C 45.519531 53.71875 45.652344 53.53125 45.761719 53.332031 C 47.613281 53.121094 49.699219 52.660156 51.78125 51.90625 C 51.570312 52.226562 51.316406 52.546875 51.007812 52.855469 C 50.894531 52.96875 50.769531 53.078125 50.648438 53.1875 Z M 52.707031 49.632812 C 52.675781 49.113281 52.535156 48.613281 52.289062 48.117188 C 54.246094 46.847656 56.027344 45.394531 57.617188 43.773438 C 57.957031 44.46875 58.132812 45.1875 58.148438 45.917969 C 56.378906 47.453125 54.511719 48.679688 52.707031 49.632812 Z M 58.441406 45.660156 C 58.390625 44.9375 58.191406 44.230469 57.839844 43.542969 C 59.292969 42.027344 60.578125 40.375 61.675781 38.59375 C 61.753906 38.460938 61.828125 38.332031 61.90625 38.199219 C 62.34375 39.085938 62.574219 40 62.585938 40.933594 C 61.351562 42.753906 59.9375 44.320312 58.441406 45.660156 Z M 62.871094 40.492188 C 62.796875 39.601562 62.535156 38.734375 62.09375 37.886719 C 62.570312 37.054688 63.007812 36.210938 63.390625 35.351562 C 63.871094 36.316406 64.117188 37.300781 64.128906 38.3125 C 63.738281 39.074219 63.316406 39.800781 62.871094 40.492188 Z M 61.84375 28.292969 C 60.6875 27.3125 59.304688 26.421875 57.746094 25.632812 C 58.148438 23.53125 58.371094 21.453125 58.398438 19.457031 C 60.019531 20.28125 61.4375 21.21875 62.617188 22.246094 C 62.617188 24.101562 62.390625 26.011719 61.925781 27.964844 C 61.902344 28.074219 61.871094 28.183594 61.84375 28.292969 Z M 48.257812 3.519531 C 49.089844 4.265625 49.796875 5.183594 50.386719 6.265625 C 48.691406 5.796875 46.878906 5.433594 44.988281 5.179688 C 44.710938 4.183594 44.363281 3.3125 43.933594 2.621094 C 45.445312 2.832031 46.894531 3.132812 48.257812 3.519531 Z M 28.9375 3.53125 C 30.300781 3.144531 31.757812 2.839844 33.273438 2.625 C 32.84375 3.316406 32.5 4.1875 32.222656 5.179688 C 30.332031 5.4375 28.519531 5.800781 26.824219 6.265625 C 27.40625 5.195312 28.109375 4.277344 28.9375 3.53125 Z M 15.28125 27.964844 C 14.820312 26.011719 14.59375 24.097656 14.589844 22.242188 C 15.757812 21.230469 17.175781 20.296875 18.808594 19.46875 C 18.839844 21.449219 19.058594 23.503906 19.457031 25.589844 C 17.894531 26.375 16.511719 27.257812 15.351562 28.234375 C 15.328125 28.144531 15.304688 28.054688 15.28125 27.964844 Z M 11.835938 35.179688 C 11.835938 34.105469 12.097656 33.058594 12.59375 32.058594 C 12.886719 33.042969 13.246094 34.019531 13.660156 34.980469 C 13.175781 35.875 12.890625 36.796875 12.800781 37.734375 C 12.449219 37 12.128906 36.234375 11.84375 35.433594 C 11.839844 35.351562 11.835938 35.265625 11.835938 35.179688 Z M 13.28125 39.964844 C 13.199219 39.652344 13.144531 39.339844 13.113281 39.023438 C 13.488281 39.714844 13.886719 40.378906 14.308594 41.007812 C 14.308594 41.011719 14.308594 41.015625 14.308594 41.019531 C 14.308594 41.46875 14.359375 41.914062 14.457031 42.355469 C 14.023438 41.578125 13.632812 40.78125 13.28125 39.964844 Z M 16.429688 45.382812 C 16.410156 45.363281 16.390625 45.347656 16.367188 45.339844 C 15.953125 44.777344 15.566406 44.199219 15.199219 43.609375 C 14.878906 42.910156 14.6875 42.195312 14.632812 41.472656 C 15.867188 43.230469 17.269531 44.746094 18.746094 46.042969 C 18.75 46.757812 18.90625 47.464844 19.207031 48.152344 C 18.183594 47.339844 17.238281 46.421875 16.429688 45.382812 Z M 21.242188 50.445312 C 20.839844 50.0625 20.488281 49.667969 20.195312 49.261719 C 21.699219 50.28125 23.324219 51.097656 24.96875 51.730469 C 25.195312 52.15625 25.5 52.566406 25.886719 52.96875 C 24.628906 52.535156 23.421875 51.96875 22.332031 51.289062 C 21.964844 51.015625 21.601562 50.738281 21.242188 50.445312 Z M 55.964844 50.445312 C 55.597656 50.742188 55.222656 51.03125 54.84375 51.308594 C 53.757812 51.988281 52.550781 52.546875 51.300781 52.976562 C 51.683594 52.582031 51.992188 52.164062 52.226562 51.734375 C 53.871094 51.105469 55.496094 50.289062 57 49.269531 C 56.710938 49.671875 56.363281 50.066406 55.964844 50.445312 Z M 60.835938 45.339844 C 60.816406 45.347656 60.796875 45.363281 60.78125 45.382812 C 59.96875 46.425781 59.019531 47.34375 57.996094 48.160156 C 58.296875 47.46875 58.453125 46.761719 58.457031 46.046875 C 59.933594 44.75 61.335938 43.234375 62.570312 41.484375 C 62.515625 42.207031 62.320312 42.917969 62.003906 43.617188 C 61.636719 44.203125 61.25 44.777344 60.835938 45.339844 Z M 62.746094 42.355469 C 62.84375 41.917969 62.894531 41.46875 62.894531 41.019531 C 63.316406 40.386719 63.714844 39.730469 64.089844 39.035156 C 64.058594 39.347656 64.003906 39.65625 63.925781 39.96875 C 63.570312 40.78125 63.179688 41.582031 62.746094 42.355469 Z M 63.785156 17.738281 C 63.273438 17.074219 62.65625 16.4375 61.957031 15.828125 C 61.714844 15.074219 61.429688 14.332031 61.101562 13.609375 C 61.605469 14.09375 62.054688 14.59375 62.4375 15.117188 C 62.9375 15.964844 63.382812 16.84375 63.785156 17.738281 Z M 55.332031 8.066406 C 53.949219 7.414062 52.425781 6.847656 50.792969 6.378906 C 50.261719 5.347656 49.628906 4.457031 48.890625 3.699219 C 49.976562 4.035156 51.003906 4.429688 51.957031 4.871094 C 52.328125 5.078125 52.695312 5.289062 53.058594 5.515625 C 53.917969 6.21875 54.679688 7.074219 55.332031 8.066406 Z M 42.777344 1.742188 C 42.953125 1.882812 43.117188 2.042969 43.277344 2.230469 C 41.8125 2.054688 40.300781 1.960938 38.753906 1.953125 L 38.753906 1.433594 C 40.113281 1.4375 41.457031 1.542969 42.777344 1.742188 Z M 38.449219 1.429688 L 38.449219 1.953125 C 36.910156 1.960938 35.394531 2.058594 33.929688 2.234375 C 34.085938 2.046875 34.253906 1.882812 34.429688 1.742188 C 35.742188 1.542969 37.085938 1.4375 38.449219 1.429688 Z M 14.789062 15.101562 C 15.167969 14.589844 15.605469 14.09375 16.101562 13.621094 C 15.769531 14.351562 15.484375 15.101562 15.242188 15.867188 C 14.53125 16.480469 13.917969 17.128906 13.40625 17.792969 C 13.820312 16.867188 14.28125 15.96875 14.789062 15.101562 Z M 11.027344 28.488281 C 11.078125 27.71875 11.257812 26.964844 11.5625 26.230469 C 11.664062 28.039062 11.972656 29.84375 12.46875 31.621094 C 11.960938 32.554688 11.660156 33.515625 11.566406 34.503906 C 11.207031 32.714844 11.019531 30.875 11.019531 29.011719 C 11.019531 28.835938 11.023438 28.660156 11.027344 28.488281 Z M 10.550781 28.945312 C 10.550781 28.964844 10.554688 28.980469 10.5625 29 C 10.5625 29.003906 10.558594 29.007812 10.558594 29.011719 C 10.558594 36.5 13.476562 43.542969 18.773438 48.839844 C 24.070312 54.136719 31.109375 57.050781 38.601562 57.050781 C 54.054688 57.050781 66.628906 44.484375 66.644531 29.035156 C 66.65625 29.007812 66.664062 28.976562 66.664062 28.945312 C 66.664062 28.699219 66.648438 28.457031 66.625 28.214844 C 66.425781 21.023438 63.539062 14.289062 58.429688 9.183594 C 53.132812 3.886719 46.09375 0.96875 38.601562 0.96875 C 31.113281 0.96875 24.070312 3.886719 18.773438 9.183594 C 13.632812 14.324219 10.742188 21.105469 10.578125 28.351562 C 10.558594 28.550781 10.550781 28.746094 10.550781 28.945312"/><path d="M 68.289062 34.472656 C 67.863281 34.507812 67.589844 34.792969 67.675781 35.105469 C 67.761719 35.421875 68.175781 35.648438 68.601562 35.613281 C 71.578125 35.363281 73.96875 34.914062 75.613281 34.273438 C 77.359375 33.59375 78.316406 32.6875 78.316406 31.558594 C 78.316406 29.214844 73.847656 26.496094 66.628906 24 C 59.660156 21.589844 50.046875 19.308594 39.441406 17.734375 C 34.082031 16.941406 28.988281 16.402344 24.359375 16.105469 C 17.65625 15.675781 11.914062 15.761719 7.769531 16.324219 C 3.371094 16.921875 0.6875 18.097656 0.410156 19.824219 C 0.394531 19.925781 0.386719 20.027344 0.386719 20.125 C 0.386719 21.097656 1.113281 22.113281 2.457031 23.140625 C 3.75 24.121094 5.632812 25.132812 8 26.132812 C 8.390625 26.296875 8.863281 26.214844 9.054688 25.941406 C 9.246094 25.671875 9.085938 25.320312 8.695312 25.152344 C 6.472656 24.214844 4.71875 23.277344 3.550781 22.386719 C 2.519531 21.601562 1.960938 20.871094 1.960938 20.226562 C 1.960938 20.164062 1.96875 20.105469 1.976562 20.054688 C 2.171875 18.839844 4.433594 17.960938 8.179688 17.453125 C 12.179688 16.90625 17.78125 16.832031 24.359375 17.25 C 28.9375 17.542969 33.976562 18.078125 39.261719 18.863281 C 49.738281 20.414062 59.214844 22.660156 66.0625 25.027344 C 72.65625 27.308594 76.738281 29.632812 76.738281 31.457031 C 76.738281 32.15625 76.046875 32.757812 74.78125 33.25 C 73.292969 33.828125 71.078125 34.238281 68.289062 34.472656"/><path d="M 67.558594 0.328125 L 67.597656 0.328125 C 67.863281 3.824219 70.652344 6.617188 74.148438 6.878906 L 74.148438 6.921875 C 70.652344 7.183594 67.863281 9.976562 67.597656 13.472656 L 67.558594 13.472656 C 67.292969 9.976562 64.503906 7.183594 61.007812 6.921875 L 61.007812 6.878906 C 64.503906 6.617188 67.292969 3.824219 67.558594 0.328125" fill-rule="evenodd"/><path d="M 74.253906 12.390625 L 74.273438 12.390625 C 74.382812 13.878906 75.570312 15.066406 77.054688 15.175781 L 77.054688 15.195312 C 75.570312 15.304688 74.382812 16.492188 74.273438 17.976562 L 74.253906 17.976562 C 74.144531 16.492188 72.957031 15.304688 71.46875 15.195312 L 71.46875 15.175781 C 72.957031 15.066406 74.144531 13.878906 74.253906 12.390625" fill-rule="evenodd"/></g></svg>