<?xml version="1.0" encoding="UTF-8" standalone="no"?><svg xmlns="http://www.w3.org/2000/svg" xmlns:xlink="http://www.w3.org/1999/xlink" clip-rule="evenodd" fill="#ffffff" fill-rule="evenodd" height="31.3" preserveAspectRatio="xMidYMid meet" stroke-linejoin="round" stroke-miterlimit="2" version="1" viewBox="0.4 0.4 31.3 31.3" width="31.3" zoomAndPan="magnify"><g id="change1_1"><path d="M20.183,14.705c-0.93,-0.93 -1.958,-1.958 -2.888,-2.888c-1.971,-1.971 -5.557,-1.742 -7.991,0.692c-1.945,1.945 -4.332,4.332 -6.277,6.277c-2.435,2.435 -2.663,6.02 -0.692,7.991c0.93,0.93 1.958,1.958 2.888,2.888c1.971,1.971 5.556,1.743 7.991,-0.692c1.38,-1.38 2.983,-2.983 4.493,-4.493c0.39,-0.39 0.39,-1.024 -0,-1.414c-0.39,-0.391 -1.024,-0.391 -1.414,-0c-1.51,1.509 -3.113,3.113 -4.493,4.493c-1.581,1.581 -3.883,1.972 -5.163,0.692c-0,0 -2.888,-2.888 -2.888,-2.888c-1.28,-1.28 -0.889,-3.582 0.692,-5.163c1.945,-1.944 4.332,-4.332 6.277,-6.276c1.581,-1.582 3.883,-1.973 5.163,-0.693c-0,0 2.888,2.888 2.888,2.888c0.39,0.39 1.024,0.39 1.414,0c0.39,-0.39 0.39,-1.024 0,-1.414Zm-8.366,2.59c0.93,0.93 1.958,1.958 2.888,2.888c1.971,1.971 5.557,1.742 7.991,-0.692c1.945,-1.945 4.332,-4.332 6.277,-6.277c2.435,-2.435 2.663,-6.02 0.692,-7.991c-0.93,-0.93 -1.958,-1.958 -2.888,-2.888c-1.971,-1.971 -5.556,-1.743 -7.991,0.692c-1.38,1.38 -2.983,2.983 -4.493,4.493c-0.39,0.39 -0.39,1.024 0,1.414c0.39,0.391 1.024,0.391 1.414,0c1.51,-1.509 3.113,-3.113 4.493,-4.493c1.581,-1.581 3.883,-1.972 5.163,-0.692c0,-0 2.888,2.888 2.888,2.888c1.28,1.28 0.889,3.582 -0.692,5.163c-1.945,1.944 -4.332,4.332 -6.277,6.276c-1.581,1.582 -3.883,1.973 -5.163,0.693c0,-0 -2.888,-2.888 -2.888,-2.888c-0.39,-0.39 -1.024,-0.39 -1.414,-0c-0.39,0.39 -0.39,1.024 -0,1.414Z"/></g></svg>